<?xml version="1.0" standalone="no"?><!DOCTYPE svg PUBLIC "-//W3C//DTD SVG 1.1//EN" "http://www.w3.org/Graphics/SVG/1.1/DTD/svg11.dtd"><svg t="1715445415696" class="icon" viewBox="0 0 1024 1024" version="1.1" xmlns="http://www.w3.org/2000/svg" p-id="13988" xmlns:xlink="http://www.w3.org/1999/xlink" width="200" height="200"><path d="M938.666667 489.813333c-19.626667 0-26.88-4.693333-40.96-13.653333-17.92-11.52-42.666667-27.306667-87.04-27.306667s-69.12 15.786667-87.04 27.306667c-13.226667 8.533333-20.906667 13.226667-38.4 13.653333-80.64-185.6-259.413333-420.266667-267.52-430.506666C401.493333 38.4 366.08 38.4 349.866667 59.306667 318.72 100.266667 42.666667 465.493333 42.666667 640c0 188.16 153.173333 341.333333 341.333333 341.333333 94.293333 0 185.173333-39.253333 249.173333-108.373333 16.213333-17.066667 15.36-44.373333-2.133333-60.16a42.154667 42.154667 0 0 0-60.16 2.133333A253.653333 253.653333 0 0 1 384 896c-141.226667 0-256-114.773333-256-256 0-108.373333 162.133333-354.133333 256-482.986667 45.653333 63.146667 128 181.76 187.306667 293.546667-5.546667-0.426667-10.24-1.28-16.64-1.28-44.373333 0-69.12 15.786667-87.04 27.306667-14.08 8.96-21.333333 13.653333-40.96 13.653333-23.466667 0-42.666667 19.2-42.666667 42.666667s19.2 42.666667 42.666667 42.666666c44.373333 0 69.12-15.786667 87.04-27.306666 14.08-8.96 21.333333-13.653333 40.96-13.653334s27.306667 4.693333 40.96 13.653334c11.946667 7.68 27.306667 17.493333 49.066666 23.04 11.946667 2.986667 24.32 4.266667 37.973334 4.266666 44.373333 0 69.12-15.786667 87.04-27.306666 13.653333-8.96 21.333333-13.653333 40.96-13.653334 19.626667 0 26.88 4.693333 40.96 13.653334 17.92 11.52 42.666667 27.306667 87.04 27.306666 23.466667 0 42.666667-19.2 42.666666-42.666666s-19.2-43.093333-42.666666-43.093334z" p-id="13989"></path><path d="M938.666667 660.48c-19.626667 0-26.88-4.693333-40.96-13.653333-17.92-11.52-42.666667-27.306667-87.04-27.306667s-69.12 15.786667-87.04 27.306667c-13.653333 8.96-21.333333 13.653333-40.96 13.653333-19.626667 0-27.306667-4.693333-40.96-13.653333-17.92-11.52-42.666667-27.306667-87.04-27.306667s-69.12 15.786667-87.04 27.306667c-14.08 8.96-21.333333 13.653333-40.96 13.653333-23.466667 0-42.666667 19.2-42.666667 42.666667s19.2 42.666667 42.666667 42.666666c44.373333 0 69.12-15.786667 87.04-27.306666 14.08-8.96 21.333333-13.653333 40.96-13.653334s27.306667 4.693333 40.96 13.653334c17.92 11.52 42.666667 27.306667 87.04 27.306666s69.12-15.786667 87.04-27.306666c13.653333-8.96 21.333333-13.653333 40.96-13.653334 19.626667 0 26.88 4.693333 40.96 13.653334 17.92 11.52 42.666667 27.306667 87.04 27.306666 23.466667 0 42.666667-19.2 42.666666-42.666666s-19.2-42.666667-42.666666-42.666667zM853.333333 384c72.96 0 132.266667-59.306667 132.266667-132.266667 0-59.306667-75.52-162.133333-98.56-192.426666-16.213333-20.906667-51.626667-20.906667-67.84 0-22.613333 30.293333-98.133333 133.12-98.133333 192.426666C721.066667 324.693333 780.373333 384 853.333333 384z m0-224.853333c26.88 40.96 46.933333 78.933333 46.933334 92.586666 0 26.026667-20.906667 46.933333-46.933334 46.933334s-46.933333-20.906667-46.933333-46.933334c0-13.653333 20.053333-51.626667 46.933333-92.586666z" p-id="13990"></path></svg>