<?xml version="1.0" standalone="no"?><!DOCTYPE svg PUBLIC "-//W3C//DTD SVG 1.1//EN" "http://www.w3.org/Graphics/SVG/1.1/DTD/svg11.dtd"><svg t="1716487005904" class="icon" viewBox="0 0 1024 1024" version="1.1" xmlns="http://www.w3.org/2000/svg" p-id="8845" xmlns:xlink="http://www.w3.org/1999/xlink" width="200" height="200"><path d="M512 273.066667a204.8 204.8 0 0 1 204.8 204.8v170.666666a34.133333 34.133333 0 0 1-34.133333 34.133334H341.333333a34.133333 34.133333 0 0 1-34.133333-34.133334v-170.666666a204.8 204.8 0 0 1 204.8-204.8z m0 68.266666a136.533333 136.533333 0 0 0-136.362667 129.706667L375.466667 477.866667v136.533333h273.066666v-136.533333a136.533333 136.533333 0 0 0-129.706666-136.362667L512 341.333333zM750.933333 716.8a34.133333 34.133333 0 0 1 0 68.266667H273.066667a34.133333 34.133333 0 0 1 0-68.266667h477.866666zM853.333333 819.2a34.133333 34.133333 0 0 1 0 68.266667H170.666667a34.133333 34.133333 0 0 1 0-68.266667h682.666666z" fill="#000000" p-id="8846"></path><path d="M560.810667 443.733333a34.133333 34.133333 0 0 1 3.9936 68.027734l-3.959467 0.238933-54.6816-0.034133 36.932267 81.271466a34.133333 34.133333 0 0 1-13.448534 43.349334l-3.549866 1.8432a34.133333 34.133333 0 0 1-43.349334-13.448534l-1.8432-3.515733-58.743466-129.501867a34.133333 34.133333 0 0 1 27.2384-48.0256l3.822933-0.2048h107.6224zM512 53.6576a34.133333 34.133333 0 0 1 33.8944 30.139733l0.238933 3.9936v131.1744a34.133333 34.133333 0 0 1-68.027733 3.9936L477.866667 218.965333V87.790933a34.133333 34.133333 0 0 1 34.133333-34.133333zM769.4336 129.365333a34.133333 34.133333 0 0 1 12.014933 43.758934l-1.979733 3.4816-71.441067 110.011733a34.133333 34.133333 0 0 1-59.255466-33.723733l1.979733-3.447467 71.4752-110.045867a34.133333 34.133333 0 0 1 47.2064-10.0352zM944.128 330.8544a34.133333 34.133333 0 0 1-12.970667 43.451733l-3.549866 1.911467-118.8864 55.432533a34.133333 34.133333 0 0 1-32.3584-59.972266l3.515733-1.877334 118.8864-55.466666a34.133333 34.133333 0 0 1 45.3632 16.520533zM982.6304 596.411733a34.133333 34.133333 0 0 1-34.577067 29.354667l-3.959466-0.3072-129.9456-18.261333a34.133333 34.133333 0 0 1 5.5296-67.925334l3.9936 0.341334 129.911466 18.261333a34.133333 34.133333 0 0 1 29.047467 38.536533zM41.3696 596.411733a34.133333 34.133333 0 0 1 25.156267-37.7856l3.8912-0.750933 129.911466-18.261333a34.133333 34.133333 0 0 1 13.4144 66.798933l-3.8912 0.785067-129.9456 18.261333a34.133333 34.133333 0 0 1-38.536533-29.047467zM79.872 330.8544a34.133333 34.133333 0 0 1 41.642667-17.988267l3.720533 1.467734 118.8864 55.466666a34.133333 34.133333 0 0 1-25.122133 63.317334l-3.720534-1.467734-118.8864-55.432533a34.133333 34.133333 0 0 1-16.520533-45.397333zM254.5664 129.365333a34.133333 34.133333 0 0 1 44.8512 6.826667l2.389333 3.208533 71.441067 110.045867A34.133333 34.133333 0 0 1 318.327467 289.792l-2.3552-3.208533-71.441067-110.011734a34.133333 34.133333 0 0 1 10.0352-47.240533z" fill="#000000" p-id="8847"></path></svg>