<?xml version="1.0" standalone="no"?><!DOCTYPE svg PUBLIC "-//W3C//DTD SVG 1.1//EN" "http://www.w3.org/Graphics/SVG/1.1/DTD/svg11.dtd"><svg t="1716486887522" class="icon" viewBox="0 0 1024 1024" version="1.1" xmlns="http://www.w3.org/2000/svg" p-id="6102" xmlns:xlink="http://www.w3.org/1999/xlink" width="200" height="200"><path d="M779.093333 0c9.045333 0 13.610667 3.968 18.133334 7.936l72.704 43.776c13.610667 11.946667-4.565333 35.797333-22.741334 27.818667-19.541333-5.973333-38.613333-11.434667-57.856-16.298667v763.392c17.237333-4.266667 33.877333-9.088 49.834667-14.421333 26.453333-8.832 48.512 22.058667 26.453333 44.117333l-66.133333 83.84h-127.872l83.797333 52.949333c13.226667 8.832 8.789333 30.890667-8.832 30.890667H270.336c-17.664 0-22.058667-22.058667-8.832-30.890667l83.797333-52.906666H217.429333L155.690667 856.32c-17.664-22.058667 4.394667-52.906667 30.848-44.117333 15.104 4.778667 31.189333 9.258667 48.128 13.397333V68.949333c-20.053333 4.522667-39.338667 9.386667-57.856 14.592-18.176 7.936-36.352-11.946667-22.741334-27.861333L231.296 7.936C235.861333 3.968 244.949333 0 249.472 0z m-51.242666 50.048l-0.512 0.725333a29.269333 29.269333 0 0 1-24.021334 11.946667H329.258667a29.44 29.44 0 0 1-20.693334-8.106667c-4.608 0.64-9.216 1.408-13.738666 2.218667v781.397333c63.914667 11.392 135.722667 18.090667 209.194666 18.090667 81.152 0 156.928-5.290667 225.152-17.066667V50.261333l-1.322666-0.256zM488.362667 304.64a52.906667 52.906667 0 0 1 51.584 0c17.194667 8.96 25.813333 26.88 25.813333 44.8 0 13.44-4.309333 22.4-8.618667 31.36 8.618667 4.48 17.194667 13.44 25.813334 22.4h34.389333c17.194667 0 34.389333-17.92 34.389333-35.84v-17.92c0-8.96 8.618667-17.92 17.194667-17.92 8.618667 0 17.194667 8.96 17.194667 17.92v17.92c0 17.92-8.576 35.84-21.461334 49.28-12.928 13.44-30.122667 22.4-47.317333 22.4h-12.885333c4.266667 13.44 4.266667 22.4 8.576 35.84h55.893333c4.309333 0 8.618667 4.48 12.928 8.96 4.266667 4.48 4.266667 13.44 0 17.92 0 4.48-8.618667 8.96-12.928 8.96H617.386667c0 13.44 0 22.4-4.266667 35.84h4.266667c38.698667 0 68.778667 31.36 68.778666 71.68v17.92c0 8.96-8.576 17.92-17.194666 17.92-8.576 0-17.194667-8.96-17.194667-17.92v-17.92c0-17.92-17.194667-35.84-34.389333-35.84h-12.885334c-21.504 44.8-51.626667 71.68-90.325333 71.68s-73.088-31.36-90.282667-71.68h-12.885333c-17.194667 0-34.389333 17.92-34.389333 35.84v17.92c0 8.96-8.618667 17.92-17.237334 17.92-8.576 0-17.194667-8.96-17.194666-17.92v-17.92c0-40.32 30.122667-71.68 68.821333-71.68h4.266667c-4.266667-13.44-4.266667-22.4-4.266667-35.84h-51.626667c-8.576 0-17.194667-8.96-17.194666-17.92s8.618667-17.92 17.194666-17.92h55.893334c0-13.44 4.309333-26.88 8.618666-35.84h-12.885333c-17.194667 0-34.389333-8.96-47.317333-22.4-12.885333-13.44-21.504-31.36-21.504-49.28v-17.92c0-4.48 4.309333-8.96 8.618666-13.44a12.672 12.672 0 0 1 17.194667 0c4.266667 0 8.618667 8.96 8.618667 13.44v17.92c0 17.92 17.194667 35.84 34.389333 35.84h34.389333c8.618667-8.96 17.194667-17.92 25.813334-22.4-4.309333-8.96-8.618667-17.92-8.618667-31.36 0-17.92 8.618667-35.84 25.813333-44.8z m25.770666 98.56c-38.698667 0-68.778667 49.28-68.778666 107.52s30.08 107.52 68.778666 107.52c38.698667 0 68.821333-49.28 68.821334-107.52s-30.122667-107.52-68.821334-107.52z m-8.576 67.2l12.885334 13.44 12.885333-13.44c8.618667-8.96 17.237333-8.96 25.813333 0 8.618667 8.96 8.618667 17.92 0 26.88l-12.885333 13.44 12.885333 13.44c8.618667 8.96 8.618667 17.92 0 26.88-8.576 8.96-17.194667 8.96-25.813333 0l-17.194667-13.44-12.885333 13.44c-8.576 8.96-17.194667 8.96-25.813333 0-4.266667-8.96-4.266667-17.92 4.309333-26.88l12.928-13.44-12.928-13.44c-8.576-8.96-8.576-17.92 0-26.88 8.618667-8.96 17.194667-8.96 25.813333 0z m8.576-134.4c-8.576 0-17.194667 4.48-17.194666 17.92 0 8.96 8.618667 17.92 17.194666 17.92 8.618667 0 17.194667-8.96 17.194667-17.92s-8.576-17.92-17.194667-17.92z" fill="#0F0000" p-id="6103"></path></svg>